# xmcd
#
# Track frame offsets:
#   150
#   13847
#   19457
#   33228
#   52851
#   79140
#   100612
#
# Disc length: 3616 seconds
#
# Revision: 0
# Processed by: cddbd v1.5.1PL2 Copyright (c) Steve Scherf et al.
# Submitted via: uFREEDB ActiveX Control 1.5
#
DISCID=490e1e07
DTITLE=a - a
DYEAR=1999
DGENRE=1
TTITLE0=1
TTITLE1=2
TTITLE2=3
TTITLE3=4
TTITLE4=5
TTITLE5=6
TTITLE6=7
EXTD=
EXTT0=
EXTT1=
EXTT2=
EXTT3=
EXTT4=
EXTT5=
EXTT6=
PLAYORDER=
